# Blender v2.79 (sub 0) OBJ File: 'triangle.blend'
# www.blender.org
mtllib triangle.mtl
o Circle
v -0.050000 -0.500000 0.866025
v -0.050000 1.000000 -0.000000
v -0.050000 -0.500000 -0.866025
v 0.050000 -0.500000 0.866025
v 0.050000 1.000000 -0.000000
v 0.050000 -0.500000 -0.866025
vt 0.380416 0.351563
vt 0.981667 0.004430
vt 0.981667 0.698695
vt 0.017362 0.159279
vt 0.668401 0.535156
vt 0.017362 0.911034
vt 0.600997 0.932912
vt 0.023986 0.947748
vt 0.023986 0.932912
vt 0.601036 0.948019
vt 0.023986 0.962852
vt 0.023986 0.948019
vt 0.023986 0.977957
vt 0.601010 0.963123
vt 0.601010 0.977959
vt 0.600997 0.947746
vt 0.601036 0.962853
vt 0.023986 0.963123
vn -1.0000 0.0000 0.0000
vn 1.0000 -0.0000 -0.0000
vn 0.0000 0.5000 -0.8660
vn 0.0000 -1.0000 -0.0000
vn 0.0000 0.5000 0.8660
usemtl Triangle
s off
f 1/1/1 2/2/1 3/3/1
f 4/4/2 6/5/2 5/6/2
f 2/7/3 6/8/3 3/9/3
f 3/10/4 4/11/4 1/12/4
f 1/13/5 5/14/5 2/15/5
f 2/7/3 5/16/3 6/8/3
f 3/10/4 6/17/4 4/11/4
f 1/13/5 4/18/5 5/14/5
