# Blender v2.79 (sub 0) OBJ File: 'circle.blend'
# www.blender.org
mtllib circle.mtl
o Circle
v -0.050000 0.000000 -1.000000
v -0.050000 0.382683 -0.923880
v -0.050000 0.707107 -0.707107
v -0.050000 0.923880 -0.382683
v -0.050000 1.000000 0.000000
v -0.050000 0.923880 0.382684
v -0.050000 0.707107 0.707107
v -0.050000 0.382683 0.923880
v -0.050000 0.000000 1.000000
v -0.050000 -0.382683 0.923880
v -0.050000 -0.707107 0.707107
v -0.050000 -0.923880 0.382684
v -0.050000 -1.000000 -0.000000
v -0.050000 -0.923879 -0.382684
v -0.050000 -0.707107 -0.707107
v -0.050000 -0.382683 -0.923880
v 0.050000 -0.000000 -1.000000
v 0.050000 0.382683 -0.923880
v 0.050000 0.707107 -0.707107
v 0.050000 0.923880 -0.382683
v 0.050000 1.000000 0.000000
v 0.050000 0.923880 0.382684
v 0.050000 0.707107 0.707107
v 0.050000 0.382683 0.923880
v 0.050000 0.000000 1.000000
v 0.050000 -0.382683 0.923880
v 0.050000 -0.707107 0.707107
v 0.050000 -0.923880 0.382684
v 0.050000 -1.000000 -0.000000
v 0.050000 -0.923879 -0.382684
v 0.050000 -0.707107 -0.707107
v 0.050000 -0.382683 -0.923880
vt 0.108489 0.538213
vt 0.461787 0.608489
vt 0.391512 0.961787
vt 0.391511 0.038213
vt 0.499820 0.200308
vt 0.299692 0.499820
vt 0.762424 0.598365
vt 0.565701 0.648783
vt 0.565701 0.598365
vt 0.762424 0.751762
vt 0.565701 0.802181
vt 0.565701 0.751762
vt 0.565701 0.393120
vt 0.762424 0.342702
vt 0.762424 0.393120
vt 0.762424 0.496100
vt 0.565701 0.546518
vt 0.565701 0.496100
vt 0.565701 0.495385
vt 0.762424 0.444967
vt 0.762424 0.495385
vt 0.565701 0.904446
vt 0.762423 0.854028
vt 0.762424 0.904446
vt 0.762424 0.700630
vt 0.565701 0.751048
vt 0.565701 0.700630
vt 0.565701 0.955579
vt 0.762424 0.905160
vt 0.762424 0.955579
vt 0.762424 0.649497
vt 0.565701 0.699916
vt 0.565701 0.649497
vt 0.565701 0.188590
vt 0.762424 0.138171
vt 0.762424 0.188590
vt 0.762424 0.240437
vt 0.565701 0.290855
vt 0.565701 0.240437
vt 0.565701 0.597651
vt 0.762424 0.547232
vt 0.762424 0.597651
vt 0.762424 0.189304
vt 0.565701 0.239722
vt 0.565701 0.189304
vt 0.565701 0.444253
vt 0.762424 0.393835
vt 0.762424 0.444253
vt 0.762424 0.291569
vt 0.565701 0.341988
vt 0.565701 0.291569
vt 0.565701 0.853313
vt 0.762424 0.802895
vt 0.762424 0.853313
vt 0.200308 0.500181
vt 0.299692 0.500181
vt 0.391511 0.538213
vt 0.499820 0.700308
vt 0.499820 0.799692
vt 0.461787 0.891511
vt 0.299692 0.999820
vt 0.200308 0.999820
vt 0.108488 0.961787
vt 0.038213 0.891512
vt 0.000180 0.799693
vt 0.000180 0.700308
vt 0.038213 0.608489
vt 0.200308 0.499820
vt 0.108489 0.461787
vt 0.038213 0.391511
vt 0.000180 0.299692
vt 0.000181 0.200308
vt 0.038213 0.108488
vt 0.108489 0.038213
vt 0.200308 0.000180
vt 0.299692 0.000181
vt 0.461787 0.108489
vt 0.499820 0.299693
vt 0.461787 0.391512
vt 0.391511 0.461787
vt 0.762424 0.648783
vt 0.762424 0.802181
vt 0.565701 0.342702
vt 0.762424 0.546518
vt 0.565701 0.444967
vt 0.565701 0.854028
vt 0.762424 0.751048
vt 0.565701 0.905160
vt 0.762424 0.699916
vt 0.565701 0.138171
vt 0.762424 0.290855
vt 0.565701 0.547232
vt 0.762424 0.239722
vt 0.565701 0.393835
vt 0.762424 0.341988
vt 0.565701 0.802895
vn -1.0000 0.0000 0.0000
vn 1.0000 -0.0000 -0.0000
vn 0.0000 -0.8315 -0.5556
vn 0.0000 0.5556 0.8315
vn 0.0000 -0.5556 -0.8315
vn 0.0000 0.1951 0.9808
vn 0.0000 0.1951 -0.9808
vn 0.0000 -0.1951 -0.9808
vn -0.0000 -0.1951 0.9808
vn 0.0000 0.5556 -0.8315
vn 0.0000 -0.5556 0.8315
vn 0.0000 0.8315 -0.5556
vn 0.0000 -0.8315 0.5556
vn 0.0000 0.9808 -0.1951
vn 0.0000 -0.9808 0.1951
vn 0.0000 0.9808 0.1951
vn 0.0000 -0.9808 -0.1951
vn 0.0000 0.8315 0.5556
usemtl Circle
s off
f 3/1/1 15/2/1 11/3/1
f 27/4/2 29/5/2 17/6/2
f 15/7/3 30/8/3 14/9/3
f 8/10/4 23/11/4 7/12/4
f 16/13/5 31/14/5 15/15/5
f 9/16/6 24/17/6 8/18/6
f 2/19/7 17/20/7 1/21/7
f 1/22/8 32/23/8 16/24/8
f 10/25/9 25/26/9 9/27/9
f 3/28/10 18/29/10 2/30/10
f 11/31/11 26/32/11 10/33/11
f 4/34/12 19/35/12 3/36/12
f 12/37/13 27/38/13 11/39/13
f 5/40/14 20/41/14 4/42/14
f 13/43/15 28/44/15 12/45/15
f 6/46/16 21/47/16 5/48/16
f 14/49/17 29/50/17 13/51/17
f 7/52/18 22/53/18 6/54/18
f 3/1/1 2/55/1 1/56/1
f 1/56/1 16/57/1 15/2/1
f 15/2/1 14/58/1 13/59/1
f 13/59/1 12/60/1 11/3/1
f 11/3/1 10/61/1 9/62/1
f 9/62/1 8/63/1 7/64/1
f 7/64/1 6/65/1 5/66/1
f 5/66/1 4/67/1 7/64/1
f 4/67/1 3/1/1 7/64/1
f 3/1/1 1/56/1 15/2/1
f 15/2/1 13/59/1 11/3/1
f 11/3/1 9/62/1 3/1/1
f 9/62/1 7/64/1 3/1/1
f 17/6/2 18/68/2 19/69/2
f 19/69/2 20/70/2 21/71/2
f 21/71/2 22/72/2 23/73/2
f 23/73/2 24/74/2 25/75/2
f 25/75/2 26/76/2 27/4/2
f 27/4/2 28/77/2 29/5/2
f 29/5/2 30/78/2 17/6/2
f 30/78/2 31/79/2 17/6/2
f 31/79/2 32/80/2 17/6/2
f 17/6/2 19/69/2 21/71/2
f 21/71/2 23/73/2 17/6/2
f 23/73/2 25/75/2 17/6/2
f 25/75/2 27/4/2 17/6/2
f 15/7/3 31/81/3 30/8/3
f 8/10/4 24/82/4 23/11/4
f 16/13/5 32/83/5 31/14/5
f 9/16/6 25/84/6 24/17/6
f 2/19/7 18/85/7 17/20/7
f 1/22/8 17/86/8 32/23/8
f 10/25/9 26/87/9 25/26/9
f 3/28/10 19/88/10 18/29/10
f 11/31/11 27/89/11 26/32/11
f 4/34/12 20/90/12 19/35/12
f 12/37/13 28/91/13 27/38/13
f 5/40/14 21/92/14 20/41/14
f 13/43/15 29/93/15 28/44/15
f 6/46/16 22/94/16 21/47/16
f 14/49/17 30/95/17 29/50/17
f 7/52/18 23/96/18 22/53/18
